<?xml version="1.0" standalone="no"?>
<!DOCTYPE svg PUBLIC "-//W3C//DTD SVG 20010904//EN"
 "http://www.w3.org/TR/2001/REC-SVG-20010904/DTD/svg10.dtd">
<svg version="1.0" xmlns="http://www.w3.org/2000/svg"
 width="374.000000pt" height="338.000000pt" viewBox="0 0 374.000000 338.000000"
 preserveAspectRatio="xMidYMid meet">
<metadata>
Created by potrace 1.16, written by Peter Selinger 2001-2019
</metadata>
<g transform="translate(0.000000,338.000000) scale(0.100000,-0.100000)"
fill="#000000" stroke="none">
<path d="M1815 3234 c-166 -13 -340 -47 -376 -75 -21 -16 -24 -26 -22 -76 0
-32 17 -161 36 -288 19 -126 34 -231 33 -232 0 0 -48 -4 -106 -8 -235 -14
-367 -36 -377 -62 -8 -20 -2 -23 63 -38 49 -11 283 -35 343 -35 9 0 -13 -18
-49 -40 -61 -37 -70 -39 -146 -40 -203 -1 -356 -119 -404 -312 -10 -39 -17
-48 -34 -48 -27 0 -66 -27 -66 -45 0 -18 39 -45 66 -45 17 0 23 -8 29 -36 25
-134 131 -254 269 -305 l51 -19 -75 3 c-67 2 -80 6 -122 36 -48 34 -78 36 -78
5 0 -37 34 -143 63 -197 59 -112 148 -164 264 -155 67 5 127 31 215 92 90 62
134 82 213 96 59 10 80 10 138 -4 68 -16 94 -29 157 -77 61 -47 146 -87 208
-99 148 -30 282 55 348 220 34 84 46 151 30 168 -11 11 -19 9 -47 -16 -86 -75
-132 -78 -302 -21 -210 70 -340 64 -437 -19 -30 -25 -41 -29 -47 -19 -15 26
-72 60 -118 71 l-46 12 26 30 c57 63 105 195 105 284 0 49 -25 151 -47 193
-21 42 -91 116 -137 144 -37 24 -37 25 -18 39 11 7 29 15 40 17 11 2 26 8 34
14 33 28 183 56 293 56 212 0 390 -78 550 -242 l49 -51 -40 -37 c-23 -21 -128
-106 -235 -190 -107 -83 -205 -163 -218 -177 l-24 -26 55 0 c31 0 58 4 60 8 7
19 424 328 487 361 11 6 75 14 143 18 l123 6 -30 -25 c-16 -14 -133 -110 -260
-213 -126 -103 -231 -193 -233 -201 -3 -11 10 -14 52 -14 53 0 57 2 153 78 54
43 164 131 244 194 232 185 238 197 134 307 -71 75 -180 154 -262 192 -29 13
-53 27 -53 31 0 5 26 8 58 8 75 0 212 17 260 33 20 7 37 19 37 27 0 27 -124
48 -390 66 -55 3 -101 7 -102 8 -1 1 9 81 23 177 50 341 53 361 40 398 -8 26
-20 37 -49 47 -91 32 -400 59 -542 48z m344 -70 c47 -9 88 -18 91 -21 2 -2
-22 -3 -55 -1 -34 2 -62 -1 -63 -7 -2 -5 22 -19 55 -30 l58 -20 -40 -3 c-55
-3 -89 -12 -81 -20 4 -3 30 -14 59 -23 l52 -17 -58 -1 c-72 -1 -73 -19 -1 -41
l49 -15 -48 -5 c-56 -6 -60 -21 -9 -36 l37 -12 -35 -1 c-19 -1 -42 -5 -50 -11
-11 -7 -9 -11 13 -19 16 -6 34 -12 40 -12 7 -1 -3 -4 -22 -8 -43 -8 -51 -28
-14 -37 15 -3 39 -10 53 -15 20 -7 17 -8 -15 -4 -39 5 -76 -7 -63 -21 4 -3 22
-10 40 -14 l33 -8 -32 -1 c-38 -1 -50 -16 -26 -30 17 -9 17 -10 -1 -17 -17 -7
-17 -8 5 -25 l24 -19 -25 0 c-23 -1 -24 -2 -7 -14 16 -12 16 -14 1 -20 -9 -3
-14 -13 -10 -21 3 -8 1 -17 -5 -20 -5 -4 -7 -11 -4 -16 4 -5 -12 -9 -34 -9
-26 0 -40 4 -39 12 2 6 -8 15 -22 19 -24 7 -24 7 -2 8 23 1 29 15 12 26 -8 5
-7 11 0 20 9 11 5 16 -22 24 -31 9 -31 9 -6 10 56 2 39 29 -20 32 -21 1 -18 3
11 8 46 7 52 24 11 31 -19 4 -25 8 -16 13 6 5 16 6 21 3 5 -3 14 0 20 8 13 15
-3 25 -42 27 -16 1 -13 4 11 10 47 14 35 33 -24 39 l-49 6 53 8 c57 9 67 29
16 34 -45 5 -54 22 -11 22 25 0 37 5 37 14 0 16 -29 25 -90 27 l-45 1 52 8
c104 15 112 34 21 46 l-63 8 58 10 c33 5 56 14 54 20 -2 6 -30 16 -63 22 -64
11 -65 10 36 30 50 9 38 34 -17 34 -51 0 -50 15 2 23 64 9 122 6 204 -9z m128
-775 c43 1 178 -48 248 -90 80 -48 177 -128 169 -140 -3 -6 -50 -9 -112 -8
l-107 3 -87 82 c-48 46 -118 101 -155 124 -67 41 -67 42 -28 35 22 -4 54 -7
72 -6z m-930 -170 c102 -49 163 -144 163 -254 l0 -56 -30 16 c-34 17 -73 19
-100 5 -18 -10 -18 -12 -2 -40 23 -39 8 -64 -42 -68 -29 -3 -36 -7 -36 -24 0
-20 57 -83 95 -104 18 -10 15 -13 -26 -37 -149 -87 -364 -40 -450 99 -65 106
-63 255 4 360 86 135 268 179 424 103z m613 -683 c36 -8 106 -28 156 -45 58
-20 113 -31 150 -32 58 -1 59 -1 29 -14 -59 -27 -112 -20 -280 38 -55 19 -122
38 -150 42 -47 8 -48 9 -20 16 44 10 44 10 115 -5z"/>
<path d="M1133 2195 c-49 -35 -174 -254 -188 -331 -6 -29 24 -94 43 -94 4 0
20 38 35 84 31 94 106 226 167 292 23 25 38 49 35 54 -9 15 -68 12 -92 -5z"/>
<path d="M1330 2121 c-79 -24 -151 -84 -187 -155 -34 -67 -42 -172 -19 -244
17 -51 30 -62 72 -62 29 0 30 9 4 57 -14 27 -20 57 -20 107 0 83 26 143 82
187 37 30 114 59 156 59 27 0 28 14 2 40 -21 21 -47 24 -90 11z"/>
<path d="M309 2450 c-124 -8 -246 -26 -267 -39 -19 -11 -31 -74 -32 -152 -1
-226 111 -394 294 -440 41 -10 46 -14 46 -39 0 -16 3 -35 6 -44 5 -12 0 -16
-17 -16 -34 0 -160 -50 -166 -65 -2 -8 0 -23 7 -34 8 -17 21 -21 63 -23 50 -1
50 -2 10 -5 -38 -4 -43 -7 -43 -29 0 -17 10 -30 33 -44 21 -13 26 -20 15 -20
-23 0 -24 -33 -2 -54 8 -9 22 -16 30 -16 10 0 13 -6 10 -18 -9 -28 16 -54 55
-57 l34 -3 0 -165 c0 -91 -3 -168 -6 -172 -4 -3 -36 -10 -71 -15 -83 -12 -98
-18 -98 -40 0 -15 12 -19 77 -26 73 -7 344 9 364 22 5 3 9 13 9 23 0 23 -27
31 -107 31 -34 0 -64 4 -68 9 -5 9 -18 133 -28 279 l-5 62 33 0 c33 0 34 -2
70 -93 42 -110 77 -165 109 -173 14 -3 78 8 148 26 186 48 171 49 194 -2 31
-69 126 -190 197 -250 82 -70 160 -116 263 -158 l81 -33 -19 -60 c-10 -34 -20
-63 -22 -65 -3 -2 -61 15 -130 37 -176 58 -251 54 -304 -14 -12 -14 -38 -67
-58 -117 l-38 -91 -132 7 c-140 7 -264 -1 -227 -15 11 -4 90 -11 174 -15 85
-4 150 -8 144 -10 -5 -1 -36 -5 -68 -9 -32 -4 -57 -8 -55 -10 2 -3 55 -7 118
-11 63 -3 119 -10 125 -15 5 -6 3 -9 -5 -10 -8 0 -4 -5 10 -10 79 -32 1072
-44 1705 -21 352 13 426 19 390 32 -21 8 43 15 260 30 29 2 29 2 -10 15 -37
11 -30 12 109 19 82 4 159 11 170 15 38 15 -89 23 -225 16 -71 -4 -129 -5
-129 -1 0 3 6 23 14 43 8 21 21 61 29 88 14 48 63 209 110 360 22 70 22 70 67
80 75 17 85 30 50 65 -19 19 -19 21 -3 26 64 20 71 38 43 121 -12 39 -31 81
-41 94 -17 23 -23 24 -109 22 -106 -3 -117 1 -230 73 -76 48 -140 71 -206 74
-1 0 1 31 4 69 4 60 2 71 -17 90 -20 20 -30 21 -250 21 l-228 0 -7 -92 c-21
-299 -145 -514 -378 -657 -240 -148 -522 -152 -792 -13 -54 28 -114 69 -153
105 -65 61 -167 201 -160 221 2 6 -14 19 -35 28 -22 10 -67 44 -101 77 l-62
59 -78 -37 c-77 -37 -78 -37 -89 -17 -18 34 -48 88 -74 132 -26 44 -74 174
-74 198 0 45 -43 86 -90 86 -16 0 -20 7 -20 34 0 72 10 93 49 105 198 59 304
310 235 558 -14 51 -15 52 -57 57 -85 10 -255 13 -368 6z m357 -92 c4 -7 10
-49 12 -94 9 -174 -64 -301 -205 -354 -132 -50 -293 25 -353 165 -27 64 -43
161 -35 222 l6 53 137 1 c75 1 180 5 232 9 155 11 198 11 206 -2z m2285 -878
c-1 -25 -5 -47 -7 -49 -2 -2 -32 1 -66 6 -88 15 -118 -2 -118 -64 0 -40 25
-59 93 -68 26 -4 50 -11 52 -16 9 -14 -42 -126 -89 -198 -112 -169 -331 -313
-496 -326 -25 -2 -63 -7 -85 -10 l-40 -6 63 39 c230 144 368 362 401 632 6 46
11 88 11 92 0 9 81 15 195 14 l90 -1 -4 -45z m170 -238 c97 -32 163 -83 204
-156 20 -36 48 -73 61 -83 l25 -19 -26 -109 c-14 -61 -30 -128 -35 -150 -17
-71 -68 -289 -75 -323 l-7 -32 -203 0 -204 0 -12 58 c-28 139 -43 168 -99 197
-44 23 -80 19 -261 -30 -92 -25 -170 -45 -174 -45 -3 0 -5 28 -3 62 l3 62 55
12 c80 16 185 59 265 107 148 89 307 281 364 440 13 33 43 35 122 9z m-1031
-634 c6 -24 15 -59 21 -78 7 -26 5 -48 -7 -85 -9 -27 -18 -56 -20 -62 -3 -10
-46 -13 -174 -13 l-170 0 0 25 c0 14 -5 44 -11 67 -11 40 -9 49 21 116 l33 72
148 0 148 0 11 -42z"/>
<path d="M130 2161 c0 -60 73 -160 143 -198 46 -25 169 -24 221 1 70 35 124
105 141 184 l7 32 -256 0 c-246 0 -256 -1 -256 -19z"/>
</g>
</svg>
